<svg width="587" height="124" viewBox="0 0 587 124" fill="none" xmlns="http://www.w3.org/2000/svg">
<path d="M52.1528 91.0371L32.1322 110.938L15.2202 94.1271L35.2408 74.2262H6.93066V50.4629H35.2408L15.2202 30.562L32.1322 13.7511L52.1528 33.652V5.51123H76.0592V33.652L96.0798 13.7511L112.992 30.562L92.9712 50.4629H121.281V74.2262H93.0082L112.992 94.1271L96.0798 110.938L76.0592 91.0371L76.0962 119.178H52.1528V91.0371Z" fill="#6828EE"/>
<path d="M204.376 51.4953C202.255 49.2507 199.86 47.3121 197.088 45.7477C192.401 43.1289 187.337 41.8025 181.897 41.8025C176.456 41.8025 170.982 43.1969 166.123 45.9517C161.299 48.7405 157.398 52.7877 154.456 58.1272C151.513 63.4668 150.042 69.9627 150.042 77.5809C150.042 85.1991 151.479 92.0351 154.387 97.4427C157.296 102.85 161.162 106.965 165.986 109.72C170.811 112.509 176.114 113.869 181.897 113.869C187.679 113.869 192.845 112.475 197.499 109.652C200.099 108.054 202.392 106.115 204.376 103.905V112.509H218.747V10.0713H204.376V51.4613V51.4953ZM201.673 91.559C199.86 94.4838 197.465 96.7965 194.488 98.463C191.511 100.129 188.226 100.98 184.736 100.98C179.091 100.98 174.369 99.0751 170.537 95.232C166.705 91.4229 164.755 85.5052 164.755 77.5809C164.755 69.6566 166.671 63.7049 170.503 59.8958C174.335 56.1207 179.057 54.2161 184.736 54.2161C188.124 54.2161 191.306 55.0323 194.317 56.6648C197.328 58.2973 199.757 60.5419 201.605 63.3648C203.452 66.1876 204.376 69.4185 204.376 73.0236V81.492C204.376 85.2671 203.486 88.6001 201.673 91.5249V91.559Z" fill="black"/>
<path d="M278.692 79.309C278.692 82.71 277.905 86.111 276.4 89.512C274.86 92.913 272.705 95.7018 269.933 97.9124C267.162 100.123 263.911 101.211 260.182 101.211C256.179 101.211 253.065 100.361 250.841 98.6266C248.617 96.8921 247.077 94.6135 246.188 91.7906C245.298 88.9678 244.853 85.8729 244.853 82.506V42.9185H230.483V86.111C230.483 89.2059 230.893 92.4028 231.68 95.6338C232.467 98.8987 233.836 101.892 235.786 104.612C237.737 107.333 240.337 109.544 243.622 111.244C246.906 112.945 251.046 113.761 256.008 113.761C260.456 113.761 264.459 112.911 268.051 111.21C271.644 109.51 274.689 107.163 277.187 104.238C277.734 103.592 278.213 102.946 278.692 102.266V112.503H292.995V42.9185H278.692V79.309Z" fill="black"/>
<path d="M357.602 45.0013C353.667 42.8927 348.911 41.8384 343.402 41.8384C337.894 41.8384 333.103 43.1648 328.587 45.7835C325.165 47.7561 322.291 50.3068 319.93 53.3677V42.9607H305.628V112.579H319.93V74.6239C319.93 70.8148 320.786 67.4138 322.462 64.4209C324.139 61.4281 326.431 59.0474 329.305 57.3129C332.18 55.5784 335.396 54.6941 338.954 54.6941C342.992 54.6941 346.242 55.4083 348.637 56.8707C351.067 58.3332 352.777 60.3738 353.838 62.9585C354.899 65.5433 355.412 68.5701 355.412 71.9711V112.545H369.714V68.026C369.714 62.6184 368.653 57.9591 366.566 54.0139C364.479 50.1028 361.468 47.0759 357.533 44.9673L357.602 45.0013Z" fill="black"/>
<path d="M433.868 45.9857C429.044 43.1969 423.774 41.8365 418.095 41.8365C412.415 41.8365 407.591 43.1629 402.937 45.7817C400.166 47.3461 397.771 49.2847 395.615 51.5633V10.0713H381.245V112.543H395.615V103.837C397.771 106.183 400.166 108.19 402.937 109.822C407.591 112.543 412.654 113.937 418.095 113.937C423.911 113.937 429.215 112.543 434.039 109.788C438.863 107.033 442.73 102.918 445.638 97.5107C448.546 92.1031 449.983 85.4712 449.983 77.6489C449.983 69.8266 448.512 63.5008 445.535 58.1953C442.559 52.8557 438.658 48.8085 433.834 46.0197L433.868 45.9857ZM429.557 95.266C425.725 99.0751 420.969 101.014 415.357 101.014C411.936 101.014 408.72 100.197 405.743 98.531C402.766 96.8645 400.337 94.6198 398.455 91.729C396.573 88.8382 395.649 85.6412 395.649 82.0702V73.0916C395.649 69.4525 396.573 66.2556 398.455 63.4328C400.337 60.61 402.766 58.3993 405.743 56.7328C408.72 55.0664 411.936 54.2841 415.357 54.2841C421.037 54.2841 425.759 56.1887 429.591 59.9638C433.423 63.7389 435.339 69.6226 435.339 77.6489C435.339 85.6752 433.423 91.4909 429.557 95.3V95.266Z" fill="black"/>
<path d="M523.957 107.369C523.615 106.179 523.375 104.852 523.238 103.322C523.102 101.825 523.033 100.261 523.033 98.6283V65.4007C523.033 60.1972 521.596 55.8439 518.756 52.3409C515.882 48.8379 512.05 46.2191 507.26 44.4506C502.435 42.6821 497.098 41.7979 491.281 41.7979C484.917 41.7979 479.272 42.7841 474.345 44.7227C469.418 46.6613 465.551 49.4841 462.78 53.2252C459.974 56.9322 458.605 61.4556 458.605 66.7951H472.668C472.668 62.3058 474.276 59.0068 477.527 56.9322C480.743 54.8576 485.328 53.8033 491.281 53.8033C496.893 53.8033 501.238 54.7216 504.283 56.5581C507.328 58.3947 508.834 61.0814 508.834 64.6185V64.7545C508.834 66.557 507.123 67.8494 503.736 68.6316C500.314 69.4139 494.463 70.2301 486.149 71.0463C480.572 71.5565 475.576 72.6788 471.197 74.3453C466.817 76.0458 463.396 78.3925 460.898 81.4534C458.4 84.5142 457.168 88.3914 457.168 93.0507C457.168 97.438 458.263 101.145 460.453 104.24C462.643 107.335 465.722 109.716 469.726 111.382C473.729 113.049 478.348 113.865 483.617 113.865C488.133 113.865 492.274 113.355 495.969 112.3C499.664 111.246 502.88 109.784 505.515 107.913C506.952 106.893 508.184 105.77 509.244 104.546C509.45 105.77 509.689 106.859 510.031 107.845C510.442 108.967 510.887 109.988 511.366 110.838C511.845 111.688 512.255 112.232 512.529 112.504H526.763C526.421 112.164 525.976 111.552 525.394 110.668C524.847 109.784 524.368 108.695 523.991 107.335L523.957 107.369ZM497.68 100.193C494.326 101.485 490.597 102.131 486.491 102.131C481.393 102.131 477.595 101.281 475.132 99.6146C472.634 97.9141 471.402 95.3974 471.402 92.0304C471.402 88.6634 472.908 86.0447 475.884 84.5142C478.861 83.0178 483.343 81.9975 489.263 81.4534C493.574 81.0112 497.748 80.4671 501.82 79.7869C504.386 79.3447 506.712 78.8346 508.765 78.2224V84.2762C508.765 88.2893 507.773 91.6223 505.72 94.2751C503.701 96.9278 500.998 98.9004 497.645 100.193H497.68Z" fill="black"/>
<path d="M577.402 42.444C575.657 42.0019 573.399 41.7979 570.559 41.7979C566.864 41.7979 563.613 42.376 560.808 43.5664C558.002 44.7567 555.641 46.3552 553.725 48.3958C552.596 49.5861 551.638 50.9125 550.782 52.3069V42.9202H536.48V112.538H550.782V76.2158C550.782 73.7331 551.09 71.2504 551.672 68.7677C552.254 66.285 553.28 64.0063 554.683 61.9317C556.086 59.8571 557.968 58.1566 560.363 56.8982C562.724 55.6399 565.735 54.9937 569.327 54.9937C571.688 54.9937 573.57 55.2317 574.904 55.7079C576.239 56.184 577.128 56.5921 577.573 56.8982L580.618 43.5324C580.208 43.2603 579.147 42.9202 577.436 42.478L577.402 42.444Z" fill="black"/>
<path d="M568.164 93.5601C573.98 93.5601 577.709 97.7773 577.709 103.015C577.709 108.83 573.672 112.572 568.164 112.572C562.655 112.572 558.549 108.558 558.549 103.015C558.549 97.4712 562.45 93.5601 568.164 93.5601ZM568.164 95.7367C563.613 95.7367 561.047 99.0356 561.047 103.049C561.047 107.334 563.989 110.327 568.164 110.327C572.817 110.327 575.212 107.504 575.212 103.049C575.212 98.5935 572.475 95.7367 568.164 95.7367ZM567 107.334H564.195V98.3555H569.087C571.003 98.3555 572.577 99.0697 572.577 101.042C572.577 102.233 571.859 102.845 571.243 103.117C572.03 103.321 572.269 104.001 572.269 105.327C572.269 105.906 572.269 106.552 572.338 107.334H569.43C569.327 107.062 569.327 106.008 569.327 105.566C569.395 104.579 569.122 104.171 568.129 104.171H567.035V107.334H567ZM567.069 100.328V102.233H568.369C569.19 102.233 569.703 101.96 569.703 101.246C569.703 100.566 569.293 100.328 568.3 100.328H567.069Z" fill="black"/>
</svg>
